<svg width="76" height="93" viewBox="0 0 76 93" fill="none" xmlns="http://www.w3.org/2000/svg">
<path d="M57.1069 92.039H0C0.00720349 91.65 0.0192093 91.261 0.0192093 90.872C0.0192093 60.9775 0.0192093 31.0807 0.0192093 1.18617V0.0408198C0.292942 0.0216105 0.439413 0 0.585884 0C19.0772 0 37.5686 0 56.0599 0.00720349C57.6159 0.00720349 59.0902 0.400994 60.4373 1.19338C63.7197 3.11911 65.1604 6.03652 65.158 9.78954C65.1435 31.1167 65.1507 52.4462 65.1507 73.7733C65.1507 76.71 65.1724 79.6442 65.146 82.5808C65.1099 86.5451 63.3283 89.4577 59.7337 91.1842C58.9125 91.578 57.9857 91.7604 57.1093 92.039H57.1069ZM46.0903 62.2982H19.1037V67.6119H46.0903V62.2982ZM24.5255 73.1394V78.47H40.6613V73.1394H24.5255Z" fill="#232962"/>
<path d="M67.3735 92.0401C69.6474 89.1419 70.5935 85.8379 70.5911 82.1762C70.567 58.1285 70.567 34.0809 70.5911 10.0332C70.5959 6.51071 69.8035 3.28115 67.688 0.421365C67.6208 0.332522 67.5848 0.219668 67.5272 0.0996094C71.4603 0.150034 75.2445 3.55248 75.8352 7.55762C75.9432 8.29478 75.9937 9.04634 75.9937 9.79311C76.0009 33.9608 76.0009 58.1285 75.9985 82.2962C75.9985 87.3891 73.3116 90.7483 68.3196 91.9129C68.2379 91.9321 68.1683 91.9993 68.0914 92.0449H67.3711L67.3735 92.0401Z" fill="#232962"/>
<path d="M24.5244 73.1406H40.6602V78.4712H24.5244V73.1406Z" fill="white"/>
<path d="M16.7082 54.5957C16.7082 54.709 16.7024 54.8066 16.6906 54.8887C16.6828 54.9707 16.6692 55.0371 16.6496 55.0879C16.634 55.1348 16.6125 55.168 16.5852 55.1875C16.5617 55.207 16.5324 55.2168 16.4973 55.2168C16.4465 55.2168 16.3645 55.1816 16.2512 55.1113C16.1379 55.041 15.9875 54.9648 15.8 54.8828C15.6125 54.8008 15.3879 54.7246 15.1262 54.6543C14.8684 54.584 14.5676 54.5488 14.2239 54.5488C13.8567 54.5488 13.5246 54.6133 13.2278 54.7422C12.9309 54.8672 12.677 55.0469 12.466 55.2812C12.2551 55.5117 12.093 55.791 11.9797 56.1191C11.8664 56.4434 11.8098 56.8027 11.8098 57.1973C11.8098 57.6309 11.8664 58.0137 11.9797 58.3457C12.0969 58.6738 12.259 58.9492 12.466 59.1719C12.6731 59.3945 12.9211 59.5625 13.2102 59.6758C13.5031 59.7891 13.8254 59.8457 14.177 59.8457C14.3489 59.8457 14.5188 59.8262 14.6867 59.7871C14.8547 59.748 15.011 59.6895 15.1555 59.6113V57.8535H13.7199C13.6496 57.8535 13.5949 57.8105 13.5559 57.7246C13.5168 57.6348 13.4973 57.4844 13.4973 57.2734C13.4973 57.1641 13.5012 57.0723 13.509 56.998C13.5207 56.9238 13.5364 56.8652 13.5559 56.8223C13.5754 56.7754 13.5989 56.7422 13.6262 56.7227C13.6535 56.6992 13.6848 56.6875 13.7199 56.6875H16.2805C16.343 56.6875 16.3977 56.6992 16.4446 56.7227C16.4953 56.7422 16.5383 56.7734 16.5735 56.8164C16.6125 56.8594 16.6418 56.9121 16.6614 56.9746C16.6809 57.0332 16.6906 57.1016 16.6906 57.1797V60.1973C16.6906 60.3145 16.6692 60.418 16.6262 60.5078C16.5871 60.5938 16.5031 60.6621 16.3742 60.7129C16.2492 60.7637 16.093 60.8164 15.9055 60.8711C15.718 60.9258 15.5227 60.9727 15.3196 61.0117C15.1203 61.0508 14.9172 61.0801 14.7102 61.0996C14.5071 61.1191 14.302 61.1289 14.0949 61.1289C13.4895 61.1289 12.9465 61.043 12.466 60.8711C11.9895 60.6953 11.5852 60.4434 11.2531 60.1152C10.9211 59.7832 10.6672 59.3809 10.4914 58.9082C10.3156 58.4316 10.2278 57.8926 10.2278 57.291C10.2278 56.6699 10.3215 56.1133 10.509 55.6211C10.6965 55.125 10.9621 54.7051 11.3059 54.3613C11.6496 54.0137 12.0637 53.748 12.5481 53.5645C13.0364 53.3809 13.5793 53.2891 14.177 53.2891C14.5051 53.2891 14.8039 53.3125 15.0735 53.3594C15.343 53.4023 15.5774 53.457 15.7766 53.5234C15.9797 53.5859 16.1477 53.6543 16.2805 53.7285C16.4133 53.8027 16.5051 53.8672 16.5559 53.9219C16.6106 53.9766 16.6496 54.0547 16.6731 54.1562C16.6965 54.2539 16.7082 54.4004 16.7082 54.5957ZM22.7727 60.3965C22.7727 60.5098 22.7668 60.6055 22.7551 60.6836C22.7473 60.7578 22.7336 60.8184 22.7141 60.8652C22.6946 60.9121 22.6692 60.9473 22.6379 60.9707C22.6106 60.9902 22.5793 61 22.5442 61H18.7356C18.6067 61 18.4973 60.9629 18.4074 60.8887C18.3215 60.8105 18.2785 60.6855 18.2785 60.5137V53.9043C18.2785 53.7324 18.3215 53.6094 18.4074 53.5352C18.4973 53.457 18.6067 53.418 18.7356 53.418H22.5207C22.5559 53.418 22.5871 53.4277 22.6145 53.4473C22.6418 53.4668 22.6653 53.502 22.6848 53.5527C22.7043 53.5996 22.718 53.6621 22.7258 53.7402C22.7375 53.8145 22.7434 53.9102 22.7434 54.0273C22.7434 54.1367 22.7375 54.2305 22.7258 54.3086C22.718 54.3828 22.7043 54.4434 22.6848 54.4902C22.6653 54.5371 22.6418 54.5723 22.6145 54.5957C22.5871 54.6152 22.5559 54.625 22.5207 54.625H19.8137V56.4766H22.1047C22.1399 56.4766 22.1711 56.4883 22.1985 56.5117C22.2297 56.5312 22.2551 56.5645 22.2746 56.6113C22.2942 56.6543 22.3078 56.7148 22.3156 56.793C22.3274 56.8672 22.3332 56.959 22.3332 57.0684C22.3332 57.1816 22.3274 57.2754 22.3156 57.3496C22.3078 57.4238 22.2942 57.4844 22.2746 57.5312C22.2551 57.5742 22.2297 57.6055 22.1985 57.625C22.1711 57.6445 22.1399 57.6543 22.1047 57.6543H19.8137V59.793H22.5442C22.5793 59.793 22.6106 59.8047 22.6379 59.8281C22.6692 59.8477 22.6946 59.8809 22.7141 59.9277C22.7336 59.9746 22.7473 60.0371 22.7551 60.1152C22.7668 60.1895 22.7727 60.2832 22.7727 60.3965ZM30.7473 57.1211C30.7473 57.75 30.6692 58.3125 30.5129 58.8086C30.3567 59.3047 30.1242 59.7266 29.8156 60.0742C29.5071 60.418 29.1242 60.6816 28.6672 60.8652C28.2141 61.0449 27.6887 61.1348 27.091 61.1348C26.5012 61.1348 25.9856 61.0586 25.5442 60.9062C25.1067 60.75 24.7414 60.5137 24.4485 60.1973C24.1555 59.8809 23.9348 59.4785 23.7864 58.9902C23.6418 58.502 23.5696 57.9238 23.5696 57.2559C23.5696 56.6426 23.6477 56.0918 23.8039 55.6035C23.9602 55.1113 24.1926 54.6934 24.5012 54.3496C24.8098 54.0059 25.1906 53.7422 25.6438 53.5586C26.1008 53.375 26.6301 53.2832 27.2317 53.2832C27.8059 53.2832 28.3117 53.3594 28.7492 53.5117C29.1906 53.6641 29.5578 53.8984 29.8508 54.2148C30.1477 54.5312 30.3703 54.9316 30.5188 55.416C30.6711 55.8965 30.7473 56.4648 30.7473 57.1211ZM29.1301 57.2031C29.1301 56.8047 29.0989 56.4434 29.0364 56.1191C28.9739 55.791 28.8664 55.5117 28.7141 55.2812C28.5656 55.0469 28.3664 54.8672 28.1164 54.7422C27.8664 54.6133 27.5539 54.5488 27.1789 54.5488C26.8 54.5488 26.4836 54.6211 26.2297 54.7656C25.9758 54.9062 25.7707 55.0957 25.6145 55.334C25.4582 55.5723 25.3469 55.8516 25.2805 56.1719C25.218 56.4883 25.1867 56.8242 25.1867 57.1797C25.1867 57.5938 25.218 57.9668 25.2805 58.2988C25.343 58.627 25.4485 58.9082 25.5969 59.1426C25.7453 59.377 25.9446 59.5566 26.1946 59.6816C26.4446 59.8027 26.759 59.8633 27.1379 59.8633C27.5168 59.8633 27.8332 59.793 28.0871 59.6523C28.341 59.5117 28.5461 59.3203 28.7024 59.0781C28.8586 58.8359 28.968 58.5547 29.0305 58.2344C29.0969 57.9102 29.1301 57.5664 29.1301 57.2031ZM37.6731 60.8008C37.6731 60.8438 37.6653 60.8809 37.6496 60.9121C37.634 60.9395 37.5969 60.9629 37.5383 60.9824C37.4797 61.002 37.3938 61.0156 37.2805 61.0234C37.1672 61.0312 37.0129 61.0352 36.8176 61.0352C36.6535 61.0352 36.5227 61.0312 36.425 61.0234C36.3274 61.0156 36.2492 61.002 36.1906 60.9824C36.136 60.959 36.0969 60.9316 36.0735 60.9004C36.05 60.8652 36.0305 60.8242 36.0149 60.7773L35.3352 59.084C35.2531 58.8926 35.1731 58.7227 35.0949 58.5742C35.0168 58.4258 34.9289 58.3027 34.8313 58.2051C34.7375 58.1035 34.6281 58.0273 34.5031 57.9766C34.3781 57.9258 34.2336 57.9004 34.0696 57.9004H33.5891V60.7891C33.5891 60.8281 33.5754 60.8633 33.5481 60.8945C33.5246 60.9258 33.4836 60.9512 33.425 60.9707C33.3664 60.9902 33.2883 61.0059 33.1906 61.0176C33.093 61.0293 32.968 61.0352 32.8156 61.0352C32.6672 61.0352 32.5422 61.0293 32.4406 61.0176C32.343 61.0059 32.2649 60.9902 32.2063 60.9707C32.1477 60.9512 32.1067 60.9258 32.0832 60.8945C32.0598 60.8633 32.0481 60.8281 32.0481 60.7891V53.9043C32.0481 53.7324 32.091 53.6094 32.177 53.5352C32.2668 53.457 32.3762 53.418 32.5051 53.418H34.468C34.6672 53.418 34.8313 53.4219 34.9602 53.4297C35.0891 53.4375 35.2063 53.4473 35.3117 53.459C35.6164 53.502 35.8899 53.5762 36.1321 53.6816C36.3781 53.7871 36.5852 53.9258 36.7531 54.0977C36.925 54.2656 37.0559 54.4668 37.1457 54.7012C37.2356 54.9316 37.2805 55.1973 37.2805 55.498C37.2805 55.752 37.2473 55.9844 37.1809 56.1953C37.1184 56.4023 37.0246 56.5879 36.8996 56.752C36.7746 56.916 36.6203 57.0586 36.4367 57.1797C36.2531 57.3008 36.0442 57.3984 35.8098 57.4727C35.9231 57.5273 36.0285 57.5938 36.1262 57.6719C36.2278 57.75 36.3215 57.8457 36.4074 57.959C36.4973 58.0684 36.5813 58.1953 36.6594 58.3398C36.7375 58.4805 36.8137 58.6406 36.8879 58.8203L37.5266 60.3145C37.5852 60.4629 37.6242 60.5723 37.6438 60.6426C37.6633 60.709 37.6731 60.7617 37.6731 60.8008ZM35.6867 55.6562C35.6867 55.4062 35.6301 55.1953 35.5168 55.0234C35.4035 54.8516 35.218 54.7305 34.9602 54.6602C34.8821 54.6406 34.7922 54.625 34.6906 54.6133C34.593 54.6016 34.4563 54.5957 34.2805 54.5957H33.5891V56.7461H34.3742C34.593 56.7461 34.7844 56.7207 34.9485 56.6699C35.1125 56.6152 35.2492 56.541 35.3586 56.4473C35.468 56.3496 35.55 56.2344 35.6047 56.1016C35.6594 55.9688 35.6867 55.8203 35.6867 55.6562ZM44.7981 54.5957C44.7981 54.709 44.7922 54.8066 44.7805 54.8887C44.7727 54.9707 44.759 55.0371 44.7395 55.0879C44.7239 55.1348 44.7024 55.168 44.675 55.1875C44.6516 55.207 44.6223 55.2168 44.5871 55.2168C44.5364 55.2168 44.4543 55.1816 44.341 55.1113C44.2278 55.041 44.0774 54.9648 43.8899 54.8828C43.7024 54.8008 43.4778 54.7246 43.216 54.6543C42.9582 54.584 42.6574 54.5488 42.3137 54.5488C41.9465 54.5488 41.6145 54.6133 41.3176 54.7422C41.0207 54.8672 40.7668 55.0469 40.5559 55.2812C40.3449 55.5117 40.1828 55.791 40.0696 56.1191C39.9563 56.4434 39.8996 56.8027 39.8996 57.1973C39.8996 57.6309 39.9563 58.0137 40.0696 58.3457C40.1867 58.6738 40.3489 58.9492 40.5559 59.1719C40.7629 59.3945 41.011 59.5625 41.3 59.6758C41.593 59.7891 41.9153 59.8457 42.2668 59.8457C42.4387 59.8457 42.6086 59.8262 42.7766 59.7871C42.9446 59.748 43.1008 59.6895 43.2453 59.6113V57.8535H41.8098C41.7395 57.8535 41.6848 57.8105 41.6457 57.7246C41.6067 57.6348 41.5871 57.4844 41.5871 57.2734C41.5871 57.1641 41.591 57.0723 41.5989 56.998C41.6106 56.9238 41.6262 56.8652 41.6457 56.8223C41.6653 56.7754 41.6887 56.7422 41.716 56.7227C41.7434 56.6992 41.7746 56.6875 41.8098 56.6875H44.3703C44.4328 56.6875 44.4875 56.6992 44.5344 56.7227C44.5852 56.7422 44.6281 56.7734 44.6633 56.8164C44.7024 56.8594 44.7317 56.9121 44.7512 56.9746C44.7707 57.0332 44.7805 57.1016 44.7805 57.1797V60.1973C44.7805 60.3145 44.759 60.418 44.716 60.5078C44.677 60.5938 44.593 60.6621 44.4641 60.7129C44.3391 60.7637 44.1828 60.8164 43.9953 60.8711C43.8078 60.9258 43.6125 60.9727 43.4094 61.0117C43.2102 61.0508 43.0071 61.0801 42.8 61.0996C42.5969 61.1191 42.3918 61.1289 42.1848 61.1289C41.5793 61.1289 41.0364 61.043 40.5559 60.8711C40.0793 60.6953 39.675 60.4434 39.343 60.1152C39.011 59.7832 38.7571 59.3809 38.5813 58.9082C38.4055 58.4316 38.3176 57.8926 38.3176 57.291C38.3176 56.6699 38.4114 56.1133 38.5989 55.6211C38.7864 55.125 39.052 54.7051 39.3957 54.3613C39.7395 54.0137 40.1535 53.748 40.6379 53.5645C41.1262 53.3809 41.6692 53.2891 42.2668 53.2891C42.5949 53.2891 42.8938 53.3125 43.1633 53.3594C43.4328 53.4023 43.6672 53.457 43.8664 53.5234C44.0696 53.5859 44.2375 53.6543 44.3703 53.7285C44.5031 53.8027 44.5949 53.8672 44.6457 53.9219C44.7004 53.9766 44.7395 54.0547 44.7629 54.1562C44.7864 54.2539 44.7981 54.4004 44.7981 54.5957ZM47.9153 60.7891C47.9153 60.8281 47.9016 60.8633 47.8742 60.8945C47.8508 60.9258 47.8098 60.9512 47.7512 60.9707C47.6926 60.9902 47.6145 61.0059 47.5168 61.0176C47.4192 61.0293 47.2942 61.0352 47.1418 61.0352C46.9934 61.0352 46.8684 61.0293 46.7668 61.0176C46.6692 61.0059 46.591 60.9902 46.5324 60.9707C46.4739 60.9512 46.4309 60.9258 46.4035 60.8945C46.3801 60.8633 46.3684 60.8281 46.3684 60.7891V53.6289C46.3684 53.5898 46.3801 53.5547 46.4035 53.5234C46.4309 53.4922 46.4739 53.4668 46.5324 53.4473C46.5949 53.4277 46.675 53.4121 46.7727 53.4004C46.8703 53.3887 46.9934 53.3828 47.1418 53.3828C47.2942 53.3828 47.4192 53.3887 47.5168 53.4004C47.6145 53.4121 47.6926 53.4277 47.7512 53.4473C47.8098 53.4668 47.8508 53.4922 47.8742 53.5234C47.9016 53.5547 47.9153 53.5898 47.9153 53.6289V60.7891ZM55.7785 60.4258C55.8254 60.5664 55.8547 60.6777 55.8664 60.7598C55.8782 60.8418 55.8625 60.9043 55.8196 60.9473C55.7766 60.9863 55.7004 61.0098 55.591 61.0176C55.4817 61.0293 55.3313 61.0352 55.1399 61.0352C54.9407 61.0352 54.7844 61.0312 54.6711 61.0234C54.5617 61.0195 54.4778 61.0098 54.4192 60.9941C54.3606 60.9746 54.3196 60.9492 54.2961 60.918C54.2727 60.8867 54.2532 60.8457 54.2375 60.7949L53.7278 59.2715H50.8801L50.3996 60.7539C50.384 60.8086 50.3625 60.8555 50.3352 60.8945C50.3117 60.9297 50.2707 60.959 50.2121 60.9824C50.1574 61.002 50.0774 61.0156 49.9719 61.0234C49.8703 61.0312 49.7356 61.0352 49.5676 61.0352C49.3879 61.0352 49.2473 61.0293 49.1457 61.0176C49.0442 61.0059 48.9739 60.9785 48.9348 60.9355C48.8957 60.8887 48.8821 60.8242 48.8938 60.7422C48.9055 60.6602 48.9348 60.5508 48.9817 60.4141L51.3196 53.6875C51.343 53.6211 51.3703 53.5684 51.4016 53.5293C51.4328 53.4863 51.4817 53.4551 51.5481 53.4355C51.6184 53.4121 51.7141 53.3984 51.8352 53.3945C51.9563 53.3867 52.1164 53.3828 52.3157 53.3828C52.5461 53.3828 52.7297 53.3867 52.8664 53.3945C53.0032 53.3984 53.1086 53.4121 53.1828 53.4355C53.261 53.4551 53.3157 53.4863 53.3469 53.5293C53.3821 53.5723 53.4114 53.6309 53.4348 53.7051L55.7785 60.4258ZM52.2981 54.8652H52.2922L51.2199 58.0879H53.3703L52.2981 54.8652Z" fill="white"/>
<g clip-path="url(#clip0_491_592)">
<path d="M44.8703 24.0547H19.6143V41.3276H44.8703V24.0547Z" fill="white"/>
<path d="M33.7446 24.0547H30.7422V41.3276H33.7446V24.0547Z" fill="#C10000"/>
<path d="M39.6265 26.3379H39.0264V29.7925H39.6265V26.3379Z" fill="#C10000"/>
<path d="M37.4297 27.7953V28.3418H41.2237V27.7953H37.4297Z" fill="#C10000"/>
<path d="M39.6265 36.1777H39.0264V39.6323H39.6265V36.1777Z" fill="#C10000"/>
<path d="M37.4316 37.6332V38.1797H41.2256V37.6332H37.4316Z" fill="#C10000"/>
<path d="M25.5787 26.3379H24.9785V29.7925H25.5787V26.3379Z" fill="#C10000"/>
<path d="M23.3818 27.7934V28.3398H27.1758V27.7934H23.3818Z" fill="#C10000"/>
<path d="M25.5787 36.1777H24.9785V39.6323H25.5787V36.1777Z" fill="#C10000"/>
<path d="M23.3818 37.6332V38.1797H27.1758V37.6332H23.3818Z" fill="#C10000"/>
<path d="M19.5762 31.3794V34.1133H44.9098V31.3794H19.5762Z" fill="#C10000"/>
</g>
<rect x="16" y="61.0391" width="32.0005" height="19.0003" fill="#232962"/>
<defs>
<clipPath id="clip0_491_592">
<rect width="25.3336" height="17.2729" fill="white" transform="translate(19.5762 24.0547)"/>
</clipPath>
</defs>
</svg>
