<svg width="88" height="96" viewBox="0 0 88 96" fill="none" xmlns="http://www.w3.org/2000/svg">
<g clip-path="url(#clip0_491_474)">
<path d="M61.2523 49.569C61.2523 53.8207 61.258 58.0723 61.2523 62.324C61.2465 65.6416 59.5157 67.6672 56.2239 68.2258C56.0108 68.2631 55.7976 68.2917 55.5845 68.3204C53.8335 68.5754 53.367 69.0911 53.3641 70.8502C53.3583 77.9611 53.3641 85.072 53.3612 92.18C53.3612 92.7874 53.3814 93.3948 53.3468 94.0021C53.2806 95.1625 52.6729 95.8014 51.518 95.8071C46.5271 95.8271 41.5332 95.83 36.5394 95.8071C35.1915 95.8014 34.6616 95.1166 34.6616 93.5036C34.6559 86.2495 34.6616 78.9982 34.6616 71.7441C34.6616 68.7903 34.5839 68.6986 31.6262 68.1886C28.559 67.6614 26.7792 65.5843 26.7763 62.4644C26.7648 54.1759 26.7619 45.8847 26.7849 37.5963C26.7878 36.4961 26.8281 35.3644 27.0845 34.3044C28.0925 30.1301 31.8681 27.182 36.1823 27.1563C41.3547 27.1276 46.5271 27.1276 51.6995 27.1563C57.0735 27.182 61.2235 31.3363 61.2523 36.7053C61.2753 40.9941 61.258 45.2802 61.258 49.569H61.2523Z" fill="#A5A5A5"/>
<path d="M59.6339 70.9323C62.2287 69.5685 63.974 67.5344 64.5672 64.6551C64.7372 63.8242 64.7631 62.9533 64.7631 62.0995C64.7775 53.92 64.7717 45.7376 64.7717 37.558V36.2029C65.2066 36.1771 65.5522 36.1399 65.8949 36.1399C70.3473 36.137 74.7997 36.1255 79.2521 36.1399C84.39 36.1571 87.9871 39.7412 87.9928 44.8437C88.0015 52.1666 88.0015 59.4895 87.9928 66.8124C87.9899 69.9467 86.0517 71.9866 82.9212 72.1814C81.6598 72.2588 81.1961 72.7544 81.1904 74.1239C81.1788 78.3755 81.1846 82.6243 81.1846 86.8759C81.1846 89.1622 81.1961 91.4485 81.1788 93.7347C81.1673 95.4107 80.574 95.9923 78.9037 95.9952C74.8458 96.0009 70.7879 96.0009 66.7301 95.9952C65.1432 95.9952 64.5039 95.3649 64.5039 93.7863C64.4952 87.2856 64.5039 80.7821 64.4981 74.2814C64.4981 72.6656 64.1439 72.3848 62.5109 72.1442C61.5145 71.998 60.5583 71.5769 59.582 71.2789L59.6224 70.9294L59.6339 70.9323Z" fill="#232962"/>
<path d="M23.2462 36.0722V37.3099C23.2462 45.1714 23.2462 53.0329 23.2462 60.8916C23.2462 66.3408 23.9115 67.6931 28.4618 71.1282C27.3444 71.4519 26.4343 71.8387 25.4926 71.9619C23.9172 72.1682 23.514 72.5177 23.5111 74.1307C23.5111 80.5254 23.5111 86.9229 23.5111 93.3175C23.5111 95.2829 22.9841 95.8187 21.0459 95.8187C17.0946 95.8215 13.1433 95.8244 9.192 95.8187C7.37187 95.8187 6.83331 95.28 6.83331 93.4407C6.82755 87.0804 6.83331 80.7202 6.83043 74.3599C6.83043 72.449 6.52804 72.1281 4.62439 71.9848C2.15626 71.7986 0.0596531 69.7329 0.0452533 67.2576C0.00205395 59.4333 -0.0382655 51.6062 0.065413 43.7819C0.120132 39.6821 3.77192 36.1009 7.95362 35.9977C12.9071 35.8745 17.8664 35.9662 22.8228 35.9691C22.9236 35.9691 23.0244 36.0178 23.2462 36.0751V36.0722Z" fill="#232962"/>
<path d="M55.4856 11.5501C55.3877 17.833 50.1634 22.9184 43.9081 22.8181C37.578 22.7179 32.4517 17.5437 32.5352 11.3381C32.6245 4.81741 37.5809 -0.0559363 44.0665 -0.00150159C50.6559 0.0529332 55.5893 5.04374 55.4856 11.5473V11.5501Z" fill="#A5A5A5"/>
<path d="M72.8112 31.7102C66.9649 31.6787 62.2072 26.9457 62.2533 21.21C62.3022 15.1563 66.913 10.6182 72.9494 10.6783C78.9916 10.7385 83.5189 15.3597 83.4584 21.4048C83.4008 27.1004 78.6057 31.7417 72.8141 31.7102H72.8112Z" fill="#232962"/>
<path d="M15.1636 10.5547C21.2403 10.5461 25.7993 15.1043 25.7647 21.1523C25.7302 26.8708 21.0272 31.5321 15.2298 31.5952C9.47857 31.6553 4.574 26.8622 4.5596 21.1637C4.5452 15.1043 9.08402 10.5633 15.1636 10.5547Z" fill="#232962"/>
</g>
<defs>
<clipPath id="clip0_491_474">
<rect width="88" height="96" fill="white"/>
</clipPath>
</defs>
</svg>
