<svg width="82" height="88" viewBox="0 0 82 88" fill="none" xmlns="http://www.w3.org/2000/svg">
<g clip-path="url(#clip0_491_412)">
<path d="M6.40625 0H58.2935C58.2958 3.75146 58.2982 7.50292 58.3005 11.2544C58.3005 12.5606 58.6187 12.8815 59.9192 12.8838C63.378 12.886 66.8369 12.8838 70.2957 12.8838C70.6001 12.8838 70.9045 12.8838 71.2642 12.8838V13.844C71.2642 19.4288 71.2527 25.0158 71.2804 30.6006C71.2827 31.2308 71.0867 31.6571 70.6462 32.0925C62.0937 40.5671 53.5526 49.0531 45.03 57.5575C44.5619 58.025 44.1653 58.6392 43.9393 59.2579C43.1184 61.5152 42.3598 63.7977 41.6311 66.0871C41.4282 66.7242 41.1746 66.9877 40.4459 66.9763C37.1323 66.9281 33.8164 66.9556 30.5006 66.9533C30.2216 66.9533 29.9425 66.9281 29.4814 66.9052C30.4014 65.9015 31.2546 65.0604 31.9856 64.1231C32.23 63.8092 32.3522 63.1469 32.1816 62.8352C32.0086 62.5235 31.3676 62.2486 30.9848 62.3081C26.8019 62.9498 22.6305 63.6556 18.4569 64.3592C17.5645 64.5104 17.1886 64.971 17.3131 65.6563C17.4354 66.3346 17.9634 66.6256 18.8535 66.4767C21.0395 66.1146 23.2255 65.7388 25.4115 65.3767C26.3131 65.2277 27.2193 65.0948 28.1232 64.955C27.6205 65.7433 27.0694 66.3621 26.4975 66.9625C26.0802 67.4002 25.6513 67.9296 26.0732 68.459C26.3523 68.8096 26.9725 69.064 27.4429 69.0686C31.9394 69.1121 36.4359 69.1167 40.9324 69.0777C41.8364 69.0686 42.7749 68.9402 43.635 68.6698C46.1023 67.8929 48.5488 67.045 50.9792 66.1581C51.6018 65.9313 52.2198 65.5394 52.6902 65.0742C58.6417 59.2006 64.5656 53.2996 70.4987 47.4054C70.7085 47.1969 70.9345 47.0067 71.2204 46.7454V81.5054H6.45929V80.3458C6.45929 53.9642 6.45929 27.5825 6.45929 1.20083C6.45929 0.802083 6.427 0.403333 6.40856 0.00229167L6.40625 0ZM34.635 40.7665C31.0332 40.7665 27.4291 40.7665 23.8273 40.7665C21.4061 40.7665 18.9849 40.7619 16.5637 40.7688C15.6345 40.771 15.0995 41.195 15.1133 41.8756C15.1272 42.5288 15.6414 42.9183 16.5222 42.9367C16.6375 42.939 16.7528 42.9367 16.8681 42.9367C28.6559 42.9367 40.4436 42.9367 52.2336 42.9367C52.4919 42.9367 52.7571 42.9573 53.0107 42.9138C53.5826 42.8106 53.9562 42.4806 53.97 41.8733C53.9815 41.266 53.6218 40.9177 53.0522 40.8008C52.7755 40.7435 52.4781 40.7665 52.1898 40.7665C46.3398 40.7665 40.4874 40.7665 34.6373 40.7665H34.635ZM34.5428 30.0575C37.0216 30.0575 39.5005 30.0575 41.9793 30.0575C45.4658 30.0575 48.9547 30.0575 52.4412 30.0575C53.4673 30.0575 53.9838 29.6817 53.9769 28.9621C53.9677 28.254 53.4512 27.8988 52.4135 27.8873C52.3559 27.8873 52.2982 27.8873 52.2406 27.8873C40.4528 27.8873 28.6651 27.8873 16.8773 27.8873C16.5891 27.8873 16.2248 27.8071 16.0311 27.9469C15.6736 28.2081 15.2424 28.5656 15.1571 28.9529C15.0349 29.5052 15.4638 29.9108 16.0426 30.0231C16.3216 30.0781 16.6168 30.0529 16.905 30.0529C22.785 30.0529 28.6628 30.0529 34.5428 30.0529V30.0575ZM34.5474 36.4696C40.4551 36.4696 46.3628 36.4696 52.2705 36.4696C52.5588 36.4696 52.9208 36.559 53.1168 36.4215C53.4558 36.1854 53.9216 35.7958 53.9123 35.4842C53.9008 35.1129 53.4927 34.6981 53.1583 34.4163C52.9854 34.2696 52.6026 34.359 52.3167 34.359C40.4736 34.359 28.6282 34.359 16.7851 34.359C16.4969 34.359 16.1279 34.2742 15.9411 34.4163C15.6091 34.666 15.1548 35.0763 15.1779 35.3902C15.2032 35.7592 15.6345 36.1533 15.9803 36.4238C16.1625 36.5658 16.5384 36.4719 16.8243 36.4719C22.732 36.4719 28.6397 36.4719 34.5474 36.4719V36.4696ZM28.1255 17.176C31.868 17.176 35.6104 17.176 39.3506 17.176C39.6089 17.176 39.9478 17.2608 40.1092 17.1325C40.4574 16.8598 40.9324 16.4794 40.944 16.131C40.9555 15.7873 40.5035 15.3725 40.1646 15.0975C39.9824 14.9508 39.6112 15.0173 39.3252 15.0173C31.8126 15.015 24.3 15.015 16.7874 15.0173C16.5015 15.0173 16.1394 14.96 15.9481 15.1044C15.6137 15.3542 15.1525 15.7575 15.1733 16.0669C15.2009 16.4427 15.6275 16.8415 15.9711 17.1188C16.151 17.2631 16.5268 17.176 16.8128 17.176C20.5829 17.1783 24.3554 17.176 28.1255 17.176ZM28.114 23.5927C31.8334 23.5927 35.5505 23.5927 39.2699 23.5927C39.5581 23.5927 39.9248 23.6867 40.1162 23.5469C40.469 23.2902 40.9417 22.8983 40.9463 22.5569C40.9509 22.2085 40.492 21.8075 40.1554 21.5233C40.0009 21.3927 39.655 21.4752 39.3967 21.4752C31.8449 21.4752 24.2931 21.4752 16.7413 21.4752C16.483 21.4752 16.1371 21.3904 15.9826 21.521C15.6437 21.8075 15.1779 22.2108 15.1825 22.5592C15.1871 22.8983 15.676 23.281 16.0265 23.5492C16.1925 23.6775 16.5291 23.5927 16.7874 23.5927C20.5645 23.5927 24.3392 23.5927 28.1163 23.5927H28.114ZM28.0678 47.2381C24.3484 47.2381 20.6313 47.2381 16.9119 47.2381C16.6813 47.2381 16.4507 47.2381 16.2201 47.2427C15.5238 47.2656 15.1202 47.6506 15.1341 48.3175C15.1479 48.9867 15.5768 49.3442 16.2663 49.3511C16.4392 49.3511 16.6122 49.3511 16.7851 49.3511C24.3092 49.3511 31.8311 49.3511 39.3552 49.3511C39.5558 49.3511 39.7587 49.3579 39.9594 49.3442C40.6004 49.2983 40.9855 48.9569 40.997 48.3129C41.0085 47.6713 40.6442 47.3069 39.9986 47.2473C39.7403 47.2244 39.4797 47.2335 39.2215 47.2335C35.5021 47.2335 31.785 47.2335 28.0655 47.2335L28.0678 47.2381Z" fill="#232962"/>
<path d="M0.00461179 88.0012C0.0023059 61.0237 0 34.0462 0 7.06867C0 6.89909 0.0207531 6.72951 0.0368944 6.49805H4.31895V7.63471C4.31895 32.3778 4.31895 57.1233 4.31895 81.8664C4.31895 83.5095 4.51264 83.7066 6.13599 83.7066C25.3003 83.7066 44.4669 83.7066 63.6312 83.7066H64.8649V88.0035H0.00461179V88.0012Z" fill="#A5A5A5"/>
<path d="M43.8525 66.2689C44.3345 64.8091 44.8395 63.5097 45.1877 62.1691C45.6765 60.2808 46.7188 58.8301 48.1115 57.4597C57.5081 48.2128 66.84 38.8995 76.1858 29.6022C77.1497 28.642 78.2289 28.131 79.6078 28.5068C81.8606 29.121 82.7438 31.7678 81.298 33.5897C81.0859 33.8578 80.8322 34.0962 80.5878 34.3391C70.8292 44.0374 61.0753 53.738 51.3006 63.4203C50.9132 63.8053 50.3898 64.1101 49.8709 64.298C48.1969 64.9076 46.4974 65.4462 44.8072 66.0053C44.5466 66.0924 44.2745 66.152 43.8525 66.2689Z" fill="#A5A5A5"/>
<path d="M60.5195 10.6385V1.95312C63.4203 4.83375 66.3742 7.76937 69.2635 10.6385H60.5195Z" fill="#232962"/>
</g>
<defs>
<clipPath id="clip0_491_412">
<rect width="82" height="88" fill="white"/>
</clipPath>
</defs>
</svg>
