<svg width="34" height="33" viewBox="0 0 34 33" fill="none" xmlns="http://www.w3.org/2000/svg">
<path d="M17.0774 11.1251C14.0979 11.1251 11.6665 13.499 11.6665 16.4078C11.6665 19.3167 14.0979 21.6906 17.0774 21.6906C20.0569 21.6906 22.4884 19.3167 22.4884 16.4078C22.4884 13.499 20.0569 11.1251 17.0774 11.1251ZM33.3063 16.4078C33.3063 14.2202 33.3266 12.0525 33.2008 9.86883C33.0749 7.33249 32.4823 5.08148 30.5826 3.22678C28.6788 1.36812 26.3772 0.793478 23.7793 0.670624C21.5386 0.54777 19.3181 0.567585 17.0815 0.567585C14.8408 0.567585 12.6204 0.54777 10.3837 0.670624C7.78582 0.793478 5.48016 1.37208 3.58043 3.22678C1.67664 5.08545 1.08805 7.33249 0.962217 9.86883C0.83638 12.0564 0.856676 14.2242 0.856676 16.4078C0.856676 18.5915 0.83638 20.7632 0.962217 22.9469C1.08805 25.4832 1.6807 27.7342 3.58043 29.5889C5.48422 31.4476 7.78582 32.0222 10.3837 32.1451C12.6244 32.2679 14.8448 32.2481 17.0815 32.2481C19.3222 32.2481 21.5426 32.2679 23.7793 32.1451C26.3772 32.0222 28.6828 31.4436 30.5826 29.5889C32.4863 27.7302 33.0749 25.4832 33.2008 22.9469C33.3307 20.7632 33.3063 18.5954 33.3063 16.4078ZM17.0774 24.536C12.4702 24.536 8.75192 20.9059 8.75192 16.4078C8.75192 11.9098 12.4702 8.27966 17.0774 8.27966C21.6847 8.27966 25.403 11.9098 25.403 16.4078C25.403 20.9059 21.6847 24.536 17.0774 24.536ZM25.7439 9.84506C24.6682 9.84506 23.7996 8.99697 23.7996 7.94676C23.7996 6.89656 24.6682 6.04847 25.7439 6.04847C26.8196 6.04847 27.6883 6.89656 27.6883 7.94676C27.6886 8.19614 27.6386 8.44312 27.541 8.67358C27.4434 8.90403 27.3001 9.11342 27.1195 9.28976C26.9389 9.46609 26.7244 9.60591 26.4884 9.70119C26.2523 9.79648 25.9994 9.84537 25.7439 9.84506Z" fill="white"/>
</svg>
