<svg xmlns="http://www.w3.org/2000/svg" width="29.223" height="29.165" viewBox="0 0 29.223 29.165">
  <g id="linkedin-svgrepo-com" transform="translate(-0.005 -0.563)">
    <path id="Path_211" data-name="Path 211" d="M14.477,164.715H8.609a.471.471,0,0,0-.471.471v18.85a.471.471,0,0,0,.471.471h5.867a.471.471,0,0,0,.471-.471v-18.85a.471.471,0,0,0-.47-.471Z" transform="translate(-7.673 -154.781)" fill="#fff"/>
    <path id="Path_212" data-name="Path 212" d="M3.872.563A3.868,3.868,0,1,0,7.741,4.431,3.868,3.868,0,0,0,3.872.563Z" fill="#fff"/>
    <path id="Path_213" data-name="Path 213" d="M187.079,156.508a6.892,6.892,0,0,0-5.155,2.164v-1.224a.471.471,0,0,0-.471-.471h-5.619a.471.471,0,0,0-.471.471V176.3a.471.471,0,0,0,.471.471h5.855a.471.471,0,0,0,.471-.471v-9.326c0-3.143.854-4.367,3.044-4.367,2.386,0,2.576,1.963,2.576,4.529V176.3a.471.471,0,0,0,.471.471h5.857a.471.471,0,0,0,.471-.471V165.96C194.579,161.285,193.688,156.508,187.079,156.508Z" transform="translate(-165.351 -147.043)" fill="#fff"/>
  </g>
</svg>
