<svg width="63" height="65" viewBox="0 0 63 65" fill="none" xmlns="http://www.w3.org/2000/svg">
<path d="M62.3045 32.4973H57.9359C57.5927 32.4973 57.3118 32.7809 57.3118 33.1276V58.3395H6.13635V6.6551H31.1C31.4432 6.6551 31.7241 6.37147 31.7241 6.0248V1.61272C31.7241 1.26606 31.4432 0.982422 31.1 0.982422H3.0159C1.63509 0.982422 0.519531 2.10908 0.519531 3.50361V61.491C0.519531 62.8855 1.63509 64.0122 3.0159 64.0122H60.4323C61.8131 64.0122 62.9286 62.8855 62.9286 61.491V33.1276C62.9286 32.7809 62.6478 32.4973 62.3045 32.4973Z" fill="#FF6138"/>
<path d="M19.5467 34.3015L19.3985 43.6693C19.3907 44.3705 19.9524 44.9457 20.6467 44.9457H20.6779L29.8832 44.7172C30.0393 44.7093 30.1953 44.6463 30.3045 44.536L62.7494 11.8393C62.9913 11.5951 62.9913 11.1932 62.7494 10.949L53.0526 1.16363C52.9278 1.03757 52.7718 0.982422 52.608 0.982422C52.4441 0.982422 52.2881 1.04545 52.1633 1.16363L19.7262 33.8603C19.6135 33.9793 19.5494 34.1369 19.5467 34.3015ZM24.5005 36.1609L52.608 7.83691L56.1341 11.3902L28.011 39.73L24.4459 39.8166L24.5005 36.1609Z" fill="#FF6138"/>
</svg>
