<svg width="55" height="65" viewBox="0 0 55 65" fill="none" xmlns="http://www.w3.org/2000/svg">
<path d="M36.1607 0.929015L36.1314 0.9H36.0902H5.04172V0.899964L5.03903 0.900036C3.9188 0.930167 2.85588 1.40825 2.08111 2.22987C1.30657 3.05124 0.882515 4.1496 0.900553 5.28632V59.5381C0.882515 60.6748 1.30657 61.7731 2.08111 62.5945C2.85588 63.4161 3.9188 63.8942 5.03903 63.9244L5.03903 63.9244H5.04172L49.9583 63.9244L49.961 63.9244C51.0812 63.8942 52.1441 63.4161 52.9189 62.5945C53.6935 61.7731 54.1175 60.6747 54.0994 59.538V18.7703V18.7287L54.0699 18.6993L36.1607 0.929015ZM31.9166 23.5373H49.4829V59.2369H5.51713V5.58746H31.8166V23.4373V23.5373H31.9166ZM35.5277 19.7249V6.82815L48.4359 19.7249H35.5277Z" fill="#FF6138" stroke="#FF6138" stroke-width="0.2"/>
</svg>
