<svg width="69" height="68" viewBox="0 0 69 68" fill="none" xmlns="http://www.w3.org/2000/svg">
<path d="M59.2087 67.2507C59.5458 67.2507 59.8739 67.1439 60.1478 66.9459C60.513 66.6909 60.764 66.3011 60.8498 65.8616C60.9357 65.4215 60.8498 64.9639 60.6091 64.5867C56.5856 58.2399 50.4889 53.5776 43.423 51.4227C45.915 50.1875 48.1382 48.4447 49.9548 46.2981C51.9762 43.9094 53.4417 41.0828 54.2415 38.0313C55.0414 34.9798 55.1548 31.7824 54.5733 28.6797C54.0212 25.7332 52.856 22.9445 51.1586 20.5024L67.1903 15.0296C67.1906 15.0295 67.1909 15.0294 67.1912 15.0293C67.5302 14.915 67.8238 14.6946 68.0313 14.4011L67.7455 14.1991L68.0313 14.4011C68.2389 14.1074 68.35 13.7552 68.35 13.3945C68.35 13.0339 68.2389 12.6816 68.0313 12.388L67.7455 12.59L68.0313 12.388C67.8238 12.0945 67.5302 11.8741 67.1912 11.7598C67.1909 11.7597 67.1906 11.7596 67.1903 11.7595L35.0466 0.786473C35.0456 0.786084 35.0445 0.785696 35.0434 0.785309C34.6867 0.656985 34.2976 0.656981 33.9408 0.785293L1.84746 11.7412H1.77159H1.68719L1.61206 11.7796L1.55322 11.8098H1.44558L1.34883 11.889L1.2027 12.0088C1.12839 12.0555 1.07935 12.1114 1.05106 12.1452C1.03249 12.1674 1.02171 12.181 1.01377 12.191C1.00314 12.2044 0.997614 12.2114 0.985317 12.2239L0.981728 12.2276C0.968651 12.241 0.953467 12.2565 0.942264 12.269L0.94221 12.269C0.936921 12.2749 0.921085 12.2925 0.905392 12.3158L0.904972 12.3164C0.895748 12.3301 0.858917 12.3847 0.847361 12.4662L0.834711 12.4921C0.809336 12.5298 0.789376 12.5708 0.775353 12.6138C0.769507 12.6318 0.764718 12.6501 0.760996 12.6685C0.754366 12.6836 0.748753 12.6985 0.744419 12.7107L0.684792 12.7718V12.9144V12.9637C0.657252 13.0624 0.645922 13.165 0.651301 13.2676V40.6964C0.651301 41.1504 0.827338 41.5875 1.14325 41.911C1.45944 42.2348 1.89008 42.4183 2.34093 42.4183C2.79178 42.4183 3.22243 42.2348 3.53862 41.911C3.85453 41.5875 4.03057 41.1504 4.03057 40.6964V15.8042L17.8254 20.5027C16.1281 22.9447 14.963 25.7333 14.4109 28.6797C13.8294 31.7824 13.9429 34.9798 14.7427 38.0313C15.5425 41.0828 17.008 43.9094 19.0294 46.2981C20.846 48.4447 23.0692 50.1875 25.5612 51.4227C18.4956 53.5775 12.3992 58.2395 8.37558 64.586C8.13112 64.9676 8.04518 65.4318 8.13526 65.877C8.22543 66.3227 8.48523 66.7157 8.86051 66.9681C9.23612 67.2208 9.69571 67.3109 10.1376 67.2171C10.5794 67.1234 10.9642 66.8543 11.2092 66.4722L11.21 66.471C13.7341 62.4996 17.1859 59.2374 21.2515 56.9795C25.3171 54.7217 29.8682 53.5394 34.4921 53.5394C39.116 53.5394 43.6671 54.7217 47.7327 56.9795C51.7983 59.2374 55.2501 62.4996 57.7743 66.471L57.7742 66.4711L57.7778 66.4764C57.9351 66.7142 58.1475 66.9096 58.3971 67.0449C58.6466 67.1802 58.9253 67.251 59.2087 67.2507ZM59.2087 67.2507C59.2085 67.2507 59.2083 67.2507 59.2081 67.2507L59.2083 66.9007L59.2088 67.2507C59.2088 67.2507 59.2087 67.2507 59.2087 67.2507ZM51.5573 32.6012V32.6019C51.5576 35.4085 50.8986 38.1736 49.6362 40.6637C48.3739 43.1538 46.5455 45.2954 44.3062 46.9084C42.0668 48.5213 39.4821 49.5584 36.7703 49.9327C34.0585 50.307 31.2984 50.0076 28.723 49.0597C26.1474 48.1118 23.8316 46.5428 21.9713 44.4846C20.111 42.4263 18.7609 39.9392 18.0358 37.233C17.3107 34.5267 17.2319 31.6813 17.8063 28.9373C18.3638 26.2736 19.5207 23.7819 21.1829 21.6598L33.9439 26.0048L33.9725 26.0145L34.0023 26.0192L34.4376 26.0878L34.4921 26.0964L34.5466 26.0878L34.982 26.0192L35.0118 26.0145L35.0403 26.0048L47.8018 21.6596C50.2373 24.7561 51.565 28.6178 51.5573 32.6012ZM47.7758 18.0022L47.7749 18.0025L34.4918 22.5597L7.64413 13.3945L34.4921 4.2293L61.3378 13.3938L47.7758 18.0022Z" fill="#FF6138" stroke="#FF6138" stroke-width="0.7"/>
</svg>
