<svg width="75" height="60" viewBox="0 0 75 60" fill="none" xmlns="http://www.w3.org/2000/svg">
<path fill-rule="evenodd" clip-rule="evenodd" d="M11.7006 17.9501C11.7012 15.0108 12.4541 12.1216 13.8862 9.56283C15.3184 7.00405 17.3812 4.86261 19.8744 3.34633C22.3676 1.83004 25.2066 0.990408 28.1158 0.908902C31.0251 0.827396 33.9058 1.50679 36.4784 2.88115C39.051 4.25551 41.2281 6.27816 42.7986 8.75282C44.369 11.2275 45.2793 14.0701 45.4413 17.0049C45.6032 19.9396 45.0113 22.8668 43.7229 25.5024C42.4344 28.1379 40.4933 30.3924 38.0878 32.047C43.268 33.9658 47.7611 37.4064 50.9888 41.9259C54.2165 46.4454 56.0311 51.8371 56.1992 57.407C56.2083 57.7123 56.1577 58.0165 56.0504 58.3021C55.943 58.5877 55.7811 58.8492 55.5737 59.0716C55.1549 59.5207 54.5766 59.7834 53.966 59.8019C53.3554 59.8204 52.7625 59.5932 52.3178 59.1702C51.8731 58.7472 51.6129 58.1632 51.5946 57.5465C51.4118 51.5055 48.9072 45.7738 44.6115 41.566C40.3159 37.3582 34.5667 35.0049 28.5825 35.0049C22.5982 35.0049 16.8491 37.3582 12.5534 41.566C8.25774 45.7738 5.75313 51.5055 5.57032 57.5465C5.53959 58.1536 5.27464 58.7244 4.83224 59.1367C4.38984 59.5489 3.80517 59.7698 3.20349 59.7519C2.60181 59.7341 2.03098 59.479 1.61328 59.0413C1.19558 58.6035 0.964238 58.018 0.968817 57.4101C1.13627 51.8397 2.95065 46.4473 6.17839 41.9272C9.40614 37.4071 13.8995 33.966 19.0802 32.047C16.8046 30.4837 14.9424 28.3818 13.6561 25.9246C12.3698 23.4674 11.6984 20.7296 11.7006 17.9501ZM28.584 5.54916C25.3274 5.54916 22.2043 6.85569 19.9015 9.18132C17.5988 11.507 16.3051 14.6612 16.3051 17.9501C16.3051 21.2391 17.5988 24.3933 19.9015 26.719C22.2043 29.0446 25.3274 30.3511 28.584 30.3511C31.8406 30.3511 34.9637 29.0446 37.2665 26.719C39.5692 24.3933 40.8629 21.2391 40.8629 17.9501C40.8629 14.6612 39.5692 11.507 37.2665 9.18132C34.9637 6.85569 31.8406 5.54916 28.584 5.54916Z" fill="#FF6138"/>
<path d="M54.0325 17.9492C53.5782 17.9492 53.1362 17.9802 52.7003 18.0422C52.3959 18.0972 52.0837 18.0898 51.7823 18.0203C51.4809 17.9509 51.1964 17.8208 50.9458 17.6379C50.6952 17.455 50.4837 17.2229 50.3238 16.9557C50.164 16.6884 50.0591 16.3913 50.0153 16.0822C49.9716 15.7731 49.99 15.4583 50.0693 15.1565C50.1487 14.8547 50.2875 14.5722 50.4773 14.3257C50.6671 14.0792 50.9042 13.8739 51.1743 13.722C51.4444 13.5701 51.7421 13.4746 52.0495 13.4414C55.1025 12.9956 58.2157 13.5877 60.8991 15.1246C63.5824 16.6615 65.6836 19.0559 66.8719 21.9309C68.0603 24.806 68.2683 27.9984 67.4633 31.006C66.6583 34.0135 64.8859 36.6653 62.4251 38.5441C66.0425 40.1799 69.1138 42.838 71.2686 46.1975C73.4234 49.557 74.5696 53.4745 74.5689 57.4773C74.5689 58.094 74.3264 58.6854 73.8946 59.1215C73.4629 59.5575 72.8773 59.8025 72.2667 59.8025C71.656 59.8025 71.0705 59.5575 70.6387 59.1215C70.2069 58.6854 69.9644 58.094 69.9644 57.4773C69.964 54.0179 68.8603 50.6506 66.8168 47.8742C64.7733 45.0979 61.8986 43.0601 58.6187 42.0629L56.9795 41.5669V36.3708L58.238 35.7229C60.1037 34.7685 61.5964 33.2069 62.4752 31.2903C63.354 29.3737 63.5676 27.2139 63.0815 25.1596C62.5955 23.1053 61.4381 21.2764 59.7962 19.9681C58.1544 18.6599 56.1239 17.9486 54.0325 17.9492Z" fill="#FF6138"/>
</svg>
