<svg width="64" height="64" viewBox="0 0 64 64" fill="none" xmlns="http://www.w3.org/2000/svg">
<path d="M6.32467 4.42763H57.755C58.1425 4.42763 58.5147 4.5831 58.7895 4.86064C59.0644 5.13827 59.2193 5.51534 59.2193 5.90902V57.8508C59.2193 58.2445 59.0644 58.6215 58.7895 58.8992C58.5147 59.1767 58.1425 59.3322 57.755 59.3322H6.32467C5.9371 59.3322 5.56491 59.1767 5.2901 58.8992C5.0152 58.6215 4.86033 58.2445 4.86033 57.8508V5.90902C4.86033 5.51534 5.0152 5.13827 5.2901 4.86064C5.56491 4.5831 5.93711 4.42763 6.32467 4.42763ZM6.32467 0.464844C4.89355 0.464844 3.52154 1.03903 2.51035 2.06028C1.49924 3.08145 0.931641 4.46593 0.931641 5.90902V57.8508C0.931641 59.2939 1.49924 60.6784 2.51035 61.6995C3.52154 62.7208 4.89355 63.295 6.32467 63.295H57.755C59.1861 63.295 60.5581 62.7208 61.5693 61.6995C62.5804 60.6784 63.148 59.2939 63.148 57.8508V5.90902C63.148 4.46593 62.5804 3.08145 61.5693 2.06028C60.5581 1.03903 59.1861 0.464844 57.755 0.464844H6.32467Z" fill="#FF6138" stroke="#FF6138" stroke-width="0.5"/>
<path d="M28.4594 49.1942V49.3442H28.6094H35.4667H35.6167V49.1942V14.5664V14.4164H35.4667H28.6094H28.4594V14.5664V49.1942Z" fill="#FF6138" stroke="#FF6138" stroke-width="0.3"/>
<path d="M49.1833 35.4935H49.3334V35.3435V28.418V28.268H49.1833H14.8965H14.7465V28.418V35.3435V35.4935H14.8965H49.1833Z" fill="#FF6138" stroke="#FF6138" stroke-width="0.3"/>
</svg>
