<svg width="40" height="33" viewBox="0 0 40 33" fill="none" xmlns="http://www.w3.org/2000/svg">
<path d="M39.1756 4.32457C37.7435 4.95966 36.205 5.38876 34.5877 5.58272C36.2565 4.5834 37.505 3.01058 38.1002 1.15775C36.5324 2.08976 34.8164 2.74579 33.027 3.09732C31.8236 1.81148 30.2297 0.959203 28.4928 0.672812C26.7558 0.386421 24.973 0.681939 23.4211 1.51349C21.8691 2.34503 20.6349 3.66608 19.9101 5.27154C19.1853 6.87699 19.0103 8.67703 19.4124 10.3922C16.2355 10.2325 13.1277 9.40617 10.2905 7.96669C7.4534 6.52721 4.95041 4.50679 2.944 2.03657C2.25796 3.22091 1.86349 4.59406 1.86349 6.05646C1.86272 7.37296 2.18667 8.66929 2.80659 9.83044C3.42651 10.9916 4.32323 11.9817 5.41719 12.7128C4.14848 12.6724 2.90777 12.3293 1.79831 11.7121V11.8151C1.79819 13.6615 2.43639 15.4512 3.60463 16.8803C4.77288 18.3094 6.39921 19.2901 8.20766 19.6558C7.03073 19.9746 5.7968 20.0215 4.59908 19.7931C5.10932 21.3819 6.10322 22.7712 7.44164 23.7665C8.78006 24.7619 10.396 25.3135 12.0632 25.3441C9.23301 27.5675 5.73772 28.7736 2.13962 28.7683C1.50225 28.7685 0.865427 28.7313 0.232422 28.6568C3.8847 31.0069 8.13621 32.2541 12.4783 32.2493C27.1767 32.2493 35.212 20.066 35.212 9.49963C35.212 9.15634 35.2034 8.80962 35.188 8.46633C36.751 7.33516 38.1001 5.93441 39.1722 4.32972L39.1756 4.32457Z" fill="white"/>
</svg>
