<svg width="287" height="115" viewBox="0 0 287 115" fill="none" xmlns="http://www.w3.org/2000/svg">
<g clip-path="url(#clip0_491_545)">
<path d="M63.1093 66.8099C63.7493 66.8099 63.6693 66.4499 63.6693 65.7699V62.4699C63.6693 61.7899 63.6093 61.5699 63.9993 61.5699C65.3593 61.5699 65.7293 61.4399 65.7293 60.2399V47.9699C65.7293 44.6299 63.3693 45.1799 62.7093 43.9599C61.7593 42.3099 64.4693 42.3099 63.4893 38.7299C63.2393 37.9199 62.6093 37.4199 61.3793 37.4199C60.1493 37.4199 59.5193 37.9199 59.2693 38.7299C58.2893 42.3099 60.9993 42.3099 60.0493 43.9599C59.3793 45.1799 57.0293 44.6299 57.0293 47.9699V60.2399C57.0293 61.4499 57.3893 61.5699 58.7593 61.5699C59.1393 61.5699 59.0793 61.7899 59.0793 62.4699V65.7699C59.0793 66.4499 58.9993 66.8099 59.6393 66.8099H63.1193" fill="#101820"/>
<path d="M52.3707 40.2001C51.1607 41.4801 49.2607 44.4801 50.5007 46.9701C53.0307 47.9401 52.8407 38.9501 55.9907 39.1101C57.5507 40.5501 55.5207 44.7901 54.9007 46.6601C54.1207 48.9601 53.5007 53.7901 52.0207 56.1201C50.7807 58.0701 51.7107 64.1801 51.3207 66.2801C50.2707 67.3301 47.4307 66.5901 46.2207 66.3901C46.2207 63.9801 45.9107 62.0701 45.5207 58.2201C45.4807 57.4401 44.6607 45.5301 45.3307 44.0901C46.6907 41.0901 54.1307 35.3701 55.1407 34.2801C56.0307 33.3101 59.1807 30.0801 60.3907 30.0801C61.2407 30.6701 60.7407 32.0301 60.5507 32.5701C59.3407 35.5701 54.1307 38.5201 52.3707 40.2001Z" fill="#101820"/>
<path d="M70.5102 40.2001C71.6702 41.4801 73.5902 44.4801 72.3802 46.9701C69.8102 47.9401 70.0102 38.9501 66.8502 39.1101C65.3402 40.5501 67.3602 44.7901 67.9802 46.6601C68.7602 48.9601 69.3802 53.7901 70.8602 56.1201C72.0702 58.0701 71.1702 64.1801 71.5202 66.2801C72.6102 67.3301 75.4102 66.5901 76.6602 66.3901C76.6602 63.9801 76.9302 62.0701 77.3202 58.2201C77.4002 57.4401 78.2102 45.5301 77.5502 44.0901C76.1902 41.0901 68.7602 35.3701 67.7402 34.2801C66.8102 33.3101 63.6902 30.0801 62.4802 30.0801C61.5902 30.6701 62.1302 32.0301 62.3302 32.5701C63.5402 35.5701 68.7502 38.5201 70.5102 40.2001Z" fill="#101820"/>
<path d="M41.5595 36.1599C40.8995 36.7899 39.4095 37.2099 38.3995 38.5699C38.0095 37.8299 39.0195 36.0399 40.2295 34.9899C41.1195 34.2499 42.8795 33.0399 43.3795 32.9199C43.7695 33.8199 42.3695 35.1799 41.5495 36.1599" fill="#101820"/>
<path d="M39.491 41.0401C38.361 42.0901 37.151 42.5201 35.591 44.4301C34.931 42.1301 35.091 40.1001 35.391 38.7301C35.941 36.9401 36.831 34.9501 38.361 34.3301C38.051 35.3501 37.541 36.7501 37.421 38.6601C36.761 41.2701 36.371 41.3501 36.521 41.7001C36.671 41.7001 37.531 40.3301 38.591 39.2801C39.841 38.0301 41.401 37.7601 42.411 37.0201C42.261 37.5301 41.361 39.1201 39.491 41.0401Z" fill="#101820"/>
<path d="M33.9895 51.8387C32.4695 49.1087 32.3095 47.1187 32.1895 44.8187C32.2695 43.2187 33.0495 39.5188 34.2195 38.9688C33.8695 42.3187 34.7695 42.6288 34.4095 45.3988C34.4095 45.5588 34.0195 48.4387 34.0195 48.5987C34.4895 48.5187 34.0595 45.9488 39.3995 42.2388C38.2395 44.2688 38.7795 44.8887 36.6695 47.5887C34.2195 50.0087 33.8695 52.3787 33.9895 51.8387Z" fill="#101820"/>
<path d="M36.1403 54.4205C35.0103 56.0605 35.2003 56.8705 34.9303 57.6505C32.2403 56.0905 29.2003 49.8905 30.3303 46.8105C31.0303 49.1505 32.0102 49.6605 32.7102 51.6105C33.9202 54.5405 33.7303 55.4305 34.5003 56.0905C34.3403 54.5705 34.8503 52.7705 35.3603 51.4505C36.1003 50.3205 36.6803 48.8405 37.2303 48.3305C37.8103 50.4805 37.3802 52.2305 36.1403 54.4205Z" fill="#101820"/>
<path d="M38.5611 59.7196C38.5611 62.0996 38.1311 63.1496 37.9311 64.8996C33.2911 63.3796 30.8711 58.0796 30.8711 55.4596C32.2811 58.6596 34.3411 58.6196 37.0411 63.1396C37.2711 61.4196 36.5711 62.7096 36.4911 59.4696C36.5711 56.0796 37.2711 55.9596 37.3811 53.8496C38.2411 54.7796 38.5511 58.5296 38.5511 59.6996" fill="#101820"/>
<path d="M42.4106 66.4703C42.7606 68.2203 42.9206 70.2903 43.1906 71.8203C40.5406 70.8403 39.8706 71.5803 36.7206 69.5903C35.2706 68.8103 32.7006 65.5403 32.8606 63.1903C35.9806 66.6603 36.5206 66.2703 38.0406 67.5603C39.4406 68.6903 40.5706 70.3703 41.5906 70.1403C41.6606 69.2003 39.2906 67.1703 39.6006 61.3203C40.2206 61.9803 41.9406 64.6303 42.4106 66.4703Z" fill="#101820"/>
<path d="M47.6798 70.8411C48.4998 72.0111 48.3098 72.5211 50.4098 74.9311C49.8998 75.1611 46.8998 75.9411 44.8998 76.0311C43.5798 76.0311 38.8998 74.7811 37.3398 71.5811C40.0298 73.0211 40.0698 72.6711 43.6598 73.4511C46.2398 74.0311 48.0698 74.8511 48.7698 74.7811C48.6098 74.4311 46.6298 73.6111 45.2598 71.8911C43.8898 70.0611 44.1998 67.9911 42.9898 66.4711C43.8098 66.2411 47.0098 69.9811 47.6698 70.8411" fill="#101820"/>
<path d="M81.1012 36.1599C81.7212 36.7899 83.2512 37.2099 84.2212 38.5699C84.6512 37.8299 83.6012 36.0399 82.3912 34.9899C81.5412 34.2499 79.7812 33.0399 79.2312 32.9199C78.8412 33.8199 80.2412 35.1799 81.1012 36.1599Z" fill="#101820"/>
<path d="M83.1709 41.0401C84.2609 42.0901 85.4709 42.5201 87.0309 44.4301C87.7009 42.1301 87.5409 40.1001 87.2309 38.7301C86.7209 36.9401 85.7809 34.9501 84.2609 34.3301C84.6109 35.3501 85.0809 36.7501 85.2009 38.6601C85.8609 41.2701 86.2509 41.3501 86.1009 41.7001C85.9509 41.7001 85.0909 40.3301 84.0309 39.2801C82.8309 38.0301 81.2609 37.7601 80.2109 37.0201C80.3709 37.5301 81.3009 39.1201 83.1709 41.0401Z" fill="#101820"/>
<path d="M88.6302 51.8387C90.1902 49.1087 90.3002 47.1187 90.4202 44.8187C90.3402 43.2187 89.5602 39.5188 88.4302 38.9688C88.7402 42.3187 87.8402 42.6288 88.2302 45.3988C88.2302 45.5588 88.5802 48.4387 88.5802 48.5987C88.1502 48.5187 88.5402 45.9488 83.2402 42.2388C84.3702 44.2688 83.8202 44.8887 85.9302 47.5887C88.4202 50.0087 88.7402 52.3787 88.6202 51.8387" fill="#101820"/>
<path d="M86.5203 54.4205C87.6203 56.0605 87.4203 56.8705 87.6903 57.6505C90.3803 56.0905 93.4603 49.8905 92.2903 46.8105C91.6303 49.1505 90.6103 49.6605 89.9503 51.6105C88.7003 54.5405 88.8903 55.4305 88.1603 56.0905C88.3103 54.5705 87.7703 52.7705 87.2603 51.4505C86.5603 50.3205 85.9403 48.8405 85.3903 48.3305C84.8503 50.4805 85.2303 52.2305 86.5203 54.4205Z" fill="#101820"/>
<path d="M84.0705 59.7196C84.0705 62.0996 84.5306 63.1496 84.7306 64.8996C89.3306 63.3796 91.7906 58.0796 91.7906 55.4596C90.3406 58.6596 88.3205 58.6196 85.5905 63.1396C85.3605 61.4196 86.0505 62.7096 86.1305 59.4696C86.0505 56.0796 85.3506 55.9596 85.2306 53.8496C84.3806 54.7796 84.0605 58.5296 84.0605 59.6996" fill="#101820"/>
<path d="M80.2107 66.4703C79.8607 68.2203 79.7407 70.2903 79.4707 71.8203C82.0807 70.8403 82.7507 71.5803 85.9007 69.5903C87.3407 68.8103 89.9607 65.5403 89.8007 63.1903C86.6807 66.6603 86.1007 66.2703 84.6207 67.5603C83.2107 68.6903 82.0407 70.3703 81.0307 70.1403C80.9507 69.2003 83.3307 67.1703 83.0607 61.3203C82.4007 61.9803 80.6807 64.6303 80.2107 66.4703Z" fill="#101820"/>
<path d="M74.9409 70.8411C74.1609 72.0111 74.3509 72.5211 72.2109 74.9311C72.7509 75.1611 75.7209 75.9411 77.7509 76.0311C79.0409 76.0311 83.7209 74.7811 85.2709 71.5811C82.5909 73.0211 82.5409 72.6711 78.9609 73.4511C76.3809 74.0311 74.5909 74.8511 73.8509 74.7811C74.0009 74.4311 76.0309 73.6111 77.3609 71.8911C78.7209 70.0611 78.4109 67.9911 79.6609 66.4711C78.8109 66.2411 75.6109 69.9811 74.9409 70.8411Z" fill="#101820"/>
<path d="M54.6609 81.83L53.8809 81.44C53.8809 81.44 58.8409 75.39 67.3409 75.86C75.8409 76.33 75.2609 78.32 79.8209 78C80.3309 77.96 79.4309 78.63 79.4309 78.63C79.4309 78.63 74.9809 80.34 69.4809 78.47C64.0209 76.6 60.4709 75.47 54.6609 81.82" fill="#101820"/>
<path d="M68.1112 81.83L68.9012 81.44C68.9012 81.44 63.9812 75.39 55.4812 75.86C46.9412 76.33 47.5212 78.32 42.9612 78C42.4512 77.96 43.3512 78.63 43.3512 78.63C43.3512 78.63 47.7912 80.34 53.2912 78.47C58.7912 76.6 62.3412 75.47 68.1112 81.82" fill="#101820"/>
<path d="M128.39 55.5298C128.39 63.6798 123.99 67.5898 115.02 67.5898C106.05 67.5898 101.6 63.6798 101.6 55.5298V37.5098H110.65V53.5198C110.65 56.5198 110.65 60.2698 115.05 60.2698C119.45 60.2698 119.33 56.5198 119.33 53.5198V37.5098H128.38V55.5298" fill="#101820"/>
<path d="M133.82 37.5098H143.08L151.64 53.2298H151.72V37.5098H160.28V66.8898H151.47L142.46 50.8398H142.38V66.8898H133.82V37.5098Z" fill="#101820"/>
<path d="M165.83 37.5098H174.88V47.7198H183.36V37.5098H192.41V66.8898H183.36V55.2498H174.88V66.8898H165.83V37.5098Z" fill="#101820"/>
<path d="M215.581 48.4605C215.421 47.3905 214.591 44.1405 210.851 44.1405C206.611 44.1405 205.261 48.2505 205.261 52.2005C205.261 56.1505 206.621 60.2705 210.851 60.2705C213.901 60.2705 215.091 58.1305 215.631 55.3705H224.521C224.521 61.2905 219.711 67.5905 211.111 67.5905C201.611 67.5905 196.211 60.8805 196.211 52.2005C196.211 42.9405 202.051 36.8105 211.111 36.8105C219.171 36.8505 223.621 41.0905 224.401 48.4605H215.601" fill="#101820"/>
<path d="M237.351 44.4998H241.591C245.051 44.4998 246.081 45.5698 246.081 47.4198C246.081 50.0498 243.771 50.3398 242.091 50.3398H237.361V44.4998H237.351ZM228.301 66.8798H237.351V56.6398H242.171C245.751 56.6398 245.991 59.5598 246.241 62.3598C246.361 63.8798 246.531 65.3998 246.981 66.8798H256.031C255.201 65.5198 255.171 62.0298 255.041 60.5898C254.711 56.9298 253.191 54.2098 250.721 53.2598C253.721 52.1498 255.121 48.9398 255.121 45.8998C255.121 40.3398 250.671 37.5098 245.531 37.5098H228.291V66.8898" fill="#101820"/>
<path d="M104.54 73.6403H101.59V71.8203H109.66V73.6403H106.71V81.6703H104.54V73.6403Z" fill="#101820"/>
<path d="M110.33 71.8203H112.29V75.5303H112.33C112.83 74.7303 113.68 74.3503 114.41 74.3503C116.49 74.3503 117.02 75.5203 117.02 77.2903V81.6803H115.06V77.6503C115.06 76.4803 114.72 75.9003 113.81 75.9003C112.75 75.9003 112.29 76.4903 112.29 77.9403V81.6803H110.33V71.8303" fill="#101820"/>
<path d="M119.82 78.5794C119.87 79.8194 120.48 80.3894 121.57 80.3894C122.36 80.3894 122.99 79.9094 123.11 79.4694H124.83C124.28 81.1494 123.11 81.8694 121.49 81.8694C119.25 81.8694 117.85 80.3194 117.85 78.1194C117.85 75.9194 119.33 74.3594 121.49 74.3594C123.92 74.3594 125.09 76.3994 124.95 78.5894H119.81L119.82 78.5794ZM123 77.3394C122.82 76.3494 122.39 75.8194 121.44 75.8194C120.2 75.8194 119.84 76.7894 119.81 77.3394H122.99" fill="#101820"/>
<path d="M137.681 77.9501C137.681 80.6101 136.111 81.9001 133.481 81.9001C130.851 81.9001 129.291 80.6201 129.291 77.9501V71.8301H131.451V77.9501C131.451 79.0201 131.731 80.0901 133.481 80.0901C135.021 80.0901 135.521 79.4101 135.521 77.9501V71.8301H137.681V77.9501Z" fill="#101820"/>
<path d="M139.121 71.8203H141.271L145.381 78.4303H145.411V71.8203H147.441V81.6703H145.271L141.181 75.0803H141.151V81.6703H139.121V71.8203Z" fill="#101820"/>
<path d="M154.32 73.5103H156.69C157.65 73.5103 158.18 73.9203 158.18 74.8703C158.18 75.8203 157.66 76.2803 156.69 76.2803H154.32V73.5103ZM152.16 81.6703H154.32V77.8203H156.48C157.57 77.8203 157.97 78.2803 158.12 79.3103C158.23 80.1003 158.2 81.0503 158.46 81.6703H160.62C160.23 81.1203 160.25 79.9603 160.21 79.3403C160.14 78.3503 159.84 77.3103 158.78 77.0403V77.0103C159.87 76.5703 160.34 75.7003 160.34 74.5403C160.34 73.0503 159.22 71.8203 157.46 71.8203H152.15V81.6603" fill="#101820"/>
<path d="M163.271 77.3396C163.301 76.7896 163.651 75.8196 164.901 75.8196C165.851 75.8196 166.281 76.3396 166.461 77.3396H163.271ZM168.411 78.5796C168.551 76.3896 167.381 74.3496 164.951 74.3496C162.791 74.3496 161.311 75.9796 161.311 78.1096C161.311 80.2396 162.701 81.8596 164.951 81.8596C166.561 81.8596 167.731 81.1396 168.291 79.4596H166.571C166.441 79.8996 165.811 80.3796 165.031 80.3796C163.941 80.3796 163.331 79.8196 163.281 78.5696H168.421" fill="#101820"/>
<path d="M169.699 75.8503H168.529V74.5403H169.699V73.9903C169.699 72.7303 170.479 71.8203 172.079 71.8203C172.419 71.8203 172.779 71.8603 173.109 71.8803V73.3403C172.879 73.3103 172.639 73.3003 172.389 73.3003C171.869 73.3003 171.649 73.5203 171.649 74.1103V74.5403H172.999V75.8503H171.649V81.6703H169.689V75.8503" fill="#101820"/>
<path d="M180.299 81.6691H178.439V80.6791H178.399C177.899 81.4791 177.049 81.8691 176.219 81.8691C174.139 81.8691 173.609 80.6991 173.609 78.9291V74.5491H175.569V78.5691C175.569 79.7391 175.909 80.3191 176.819 80.3191C177.879 80.3191 178.339 79.7291 178.339 78.2791V74.5391H180.299V81.6691Z" fill="#101820"/>
<path d="M184.81 79.9898C183.61 79.9898 183.23 78.8698 183.23 77.8498C183.23 76.8298 183.71 75.8198 184.81 75.8198C186.08 75.8198 186.48 76.8498 186.48 78.0098C186.48 79.0298 185.93 79.9799 184.81 79.9799M188.34 74.5298H186.48V75.4799H186.45C185.98 74.6499 185.27 74.3398 184.33 74.3398C182.33 74.3398 181.27 76.0199 181.27 77.8699C181.27 79.8299 182.18 81.4598 184.32 81.4598C185.17 81.4598 186.03 81.0998 186.46 80.3598H186.49V81.2999C186.5 82.3199 186.01 83.0598 184.92 83.0598C184.23 83.0598 183.64 82.8098 183.46 82.0798H181.52C181.61 83.7098 183.26 84.3699 184.66 84.3699C187.94 84.3699 188.35 82.3798 188.35 81.2098V74.5398" fill="#101820"/>
<path d="M191.28 77.3396C191.31 76.7896 191.66 75.8196 192.91 75.8196C193.86 75.8196 194.29 76.3396 194.47 77.3396H191.29H191.28ZM196.42 78.5796C196.56 76.3896 195.39 74.3496 192.96 74.3496C190.8 74.3496 189.32 75.9796 189.32 78.1096C189.32 80.2396 190.71 81.8596 192.96 81.8596C194.57 81.8596 195.75 81.1396 196.3 79.4596H194.58C194.45 79.8996 193.82 80.3796 193.04 80.3796C191.95 80.3796 191.34 79.8196 191.29 78.5696H196.43" fill="#101820"/>
<path d="M198.94 77.3396C198.97 76.7896 199.32 75.8196 200.57 75.8196C201.52 75.8196 201.95 76.3396 202.13 77.3396H198.95H198.94ZM204.08 78.5796C204.22 76.3896 203.05 74.3496 200.62 74.3496C198.46 74.3496 196.98 75.9796 196.98 78.1096C196.98 80.2396 198.37 81.8596 200.62 81.8596C202.23 81.8596 203.4 81.1396 203.96 79.4596H202.24C202.12 79.8996 201.48 80.3796 200.7 80.3796C199.61 80.3796 199.01 79.8196 198.95 78.5696H204.09" fill="#101820"/>
<path d="M213.041 74.2501H213.071L214.311 77.8601H211.761L213.041 74.2501ZM208.231 81.6701H210.421L211.191 79.4801H214.871L215.611 81.6701H217.861L214.181 71.8301H211.961L208.221 81.6701H208.231Z" fill="#101820"/>
<path d="M221.54 79.9898C220.34 79.9898 219.95 78.8698 219.95 77.8498C219.95 76.8298 220.43 75.8198 221.54 75.8198C222.81 75.8198 223.21 76.8498 223.21 78.0098C223.21 79.0298 222.66 79.9799 221.54 79.9799M225.07 74.5298H223.21V75.4799H223.18C222.71 74.6499 221.99 74.3398 221.06 74.3398C219.06 74.3398 218 76.0199 218 77.8699C218 79.8299 218.91 81.4598 221.05 81.4598C221.91 81.4598 222.76 81.0998 223.19 80.3598H223.22V81.2999C223.23 82.3199 222.74 83.0598 221.65 83.0598C220.96 83.0598 220.37 82.8098 220.19 82.0798H218.24C218.34 83.7098 219.98 84.3699 221.39 84.3699C224.67 84.3699 225.08 82.3798 225.08 81.2098V74.5398" fill="#101820"/>
<path d="M228.001 77.3396C228.031 76.7896 228.391 75.8196 229.631 75.8196C230.581 75.8196 231.011 76.3396 231.191 77.3396H228.001ZM233.141 78.5796C233.281 76.3896 232.111 74.3496 229.681 74.3496C227.511 74.3496 226.041 75.9796 226.041 78.1096C226.041 80.2396 227.431 81.8596 229.681 81.8596C231.291 81.8596 232.461 81.1396 233.011 79.4596H231.291C231.171 79.8996 230.531 80.3796 229.741 80.3796C228.651 80.3796 228.041 79.8196 227.991 78.5696H233.131" fill="#101820"/>
<path d="M234 74.5396H235.86V75.5296H235.9C236.4 74.7296 237.25 74.3496 238.08 74.3496C240.16 74.3496 240.69 75.5196 240.69 77.2896V81.6796H238.73V77.6496C238.73 76.4796 238.39 75.8996 237.48 75.8996C236.42 75.8996 235.96 76.4896 235.96 77.9396V81.6796H234V74.5496" fill="#101820"/>
<path d="M246.73 77.0494C246.61 76.2494 246.1 75.8194 245.28 75.8194C244.03 75.8194 243.61 77.0894 243.61 78.1394C243.61 79.1894 244.01 80.3894 245.24 80.3894C246.15 80.3894 246.67 79.8094 246.8 78.9394H248.69C248.44 80.8294 247.13 81.8694 245.26 81.8694C243.11 81.8694 241.66 80.3494 241.66 78.2194C241.66 76.0894 242.98 74.3594 245.3 74.3594C246.98 74.3594 248.53 75.2394 248.65 77.0594H246.73" fill="#101820"/>
<path d="M253.061 82.5612C252.631 83.7012 251.961 84.1712 250.611 84.1712C250.211 84.1712 249.811 84.1412 249.411 84.1012V82.4912C249.781 82.5212 250.171 82.5712 250.551 82.5612C251.221 82.4912 251.451 81.7913 251.221 81.2213L248.711 74.5312H250.811L252.421 79.4113H252.451L254.011 74.5312H256.041L253.061 82.5513" fill="#101820"/>
</g>
<defs>
<clipPath id="clip0_491_545">
<rect width="286.11" height="114.45" fill="white"/>
</clipPath>
</defs>
</svg>
